<svg width="100" height="100" viewBox="0 0 40 40" fill="none" xmlns="http://www.w3.org/2000/svg">
<path d="M16.1819 33.7276C16.8848 33.7276 17.4546 33.1578 17.4546 32.4549C17.4546 31.7519 16.8848 31.1821 16.1819 31.1821C15.479 31.1821 14.9092 31.7519 14.9092 32.4549C14.9092 33.1578 15.479 33.7276 16.1819 33.7276Z" stroke="#F5F5F5" stroke-width="2" stroke-linecap="round" stroke-linejoin="round"/>
<path d="M30.1819 33.7276C30.8848 33.7276 31.4546 33.1578 31.4546 32.4549C31.4546 31.7519 30.8848 31.1821 30.1819 31.1821C29.479 31.1821 28.9092 31.7519 28.9092 32.4549C28.9092 33.1578 29.479 33.7276 30.1819 33.7276Z" stroke="#F5F5F5" stroke-width="2" stroke-linecap="round" stroke-linejoin="round"/>
<path d="M6 7H11.0909L14.5018 24.0418C14.6182 24.6278 14.937 25.1541 15.4023 25.5287C15.8677 25.9034 16.45 26.1024 17.0473 26.0909H29.4182C30.0155 26.1024 30.5978 25.9034 31.0631 25.5287C31.5285 25.1541 31.8473 24.6278 31.9636 24.0418L34 13.3636H12.3636" stroke="#F5F5F5" stroke-width="2" stroke-linecap="round" stroke-linejoin="round"/>
</svg>
