<svg width="43" height="40" viewBox="0 0 43 40" fill="none" xmlns="http://www.w3.org/2000/svg">
<path d="M31.7155 32.2522C29.569 33.9557 26.9799 35.0097 24.2539 35.2898C21.5278 35.5698 18.7785 35.0643 16.3304 33.8328C13.8823 32.6013 11.8376 30.6953 10.4374 28.3396C9.03725 25.9839 8.34015 23.2768 8.42834 20.5378C8.51654 17.7988 9.38635 15.1422 10.9351 12.8815C12.4839 10.6207 14.6471 8.85018 17.1694 7.77873C19.6916 6.70728 22.4677 6.37966 25.1701 6.83452C27.8725 7.28938 30.3884 8.50775 32.4209 10.3458" stroke="#F5F5F5" stroke-width="2" stroke-miterlimit="10" stroke-linecap="round"/>
<path d="M29.4209 29.0412C28.1443 29.9817 26.6621 30.6069 25.0959 30.8655C23.5298 31.1241 21.9244 31.0087 20.4116 30.5288C18.8989 30.0489 17.5221 29.2182 16.3941 28.1049C15.2662 26.9916 14.4194 25.6276 13.9234 24.1248C13.4273 22.622 13.2961 21.0233 13.5406 19.4601C13.785 17.897 14.3982 16.4139 15.3296 15.1328C16.261 13.8517 17.4842 12.8091 18.8985 12.0907C20.3129 11.3722 21.8781 10.9984 23.4657 11" stroke="#F5F5F5" stroke-width="2" stroke-miterlimit="10" stroke-linecap="round"/>
<path d="M23.4209 11C26.0052 10.9952 28.4992 12.0641 30.4209 14" stroke="#F5F5F5" stroke-width="2" stroke-miterlimit="10" stroke-linecap="round"/>
</svg>
